<?xml version="1.0" encoding="UTF-8" standalone="no"?>
<!-- Created with Inkscape (http://www.inkscape.org/) -->

<svg
   width="120.99997mm"
   height="109.99997mm"
   viewBox="0 0 120.99997 109.99997"
   version="1.1"
   id="svg1"
   sodipodi:docname="LOGO Cai.Gradient.svg"
   inkscape:version="1.3.2 (091e20e, 2023-11-25, custom)"
   xml:space="preserve"
   inkscape:export-filename="Paintings\Logo gradient.png"
   inkscape:export-xdpi="154.19884"
   inkscape:export-ydpi="154.19884"
   xmlns:inkscape="http://www.inkscape.org/namespaces/inkscape"
   xmlns:sodipodi="http://sodipodi.sourceforge.net/DTD/sodipodi-0.dtd"
   xmlns:xlink="http://www.w3.org/1999/xlink"
   xmlns="http://www.w3.org/2000/svg"
   xmlns:svg="http://www.w3.org/2000/svg"><sodipodi:namedview
     id="namedview1"
     pagecolor="#ffffff"
     bordercolor="#000000"
     borderopacity="0.25"
     inkscape:showpageshadow="2"
     inkscape:pageopacity="0.0"
     inkscape:pagecheckerboard="0"
     inkscape:deskcolor="#d1d1d1"
     inkscape:document-units="mm"
     showgrid="false"
     inkscape:zoom="0.93103385"
     inkscape:cx="26.314833"
     inkscape:cy="-979.01918"
     inkscape:window-width="1920"
     inkscape:window-height="974"
     inkscape:window-x="-11"
     inkscape:window-y="-11"
     inkscape:window-maximized="1"
     inkscape:current-layer="layer4"
     inkscape:export-bgcolor="#ffffff00"><inkscape:grid
       id="grid1"
       units="mm"
       originx="48.78148"
       originy="289.99996"
       spacingx="0.99999998"
       spacingy="1"
       empcolor="#0099e5"
       empopacity="1"
       color="#0099e5"
       opacity="0"
       empspacing="5"
       dotted="false"
       gridanglex="30"
       gridanglez="30"
       visible="false" /></sodipodi:namedview><defs
     id="defs1"><linearGradient
       id="linearGradient371"
       inkscape:collect="always"><stop
         style="stop-color:#128578;stop-opacity:1;"
         offset="0"
         id="stop371" /><stop
         style="stop-color:#22a799;stop-opacity:1;"
         offset="0.00000009"
         id="stop374" /><stop
         style="stop-color:#007c6f;stop-opacity:1;"
         offset="0.49853766"
         id="stop373" /><stop
         style="stop-color:#1c1c1c;stop-opacity:1;"
         offset="1"
         id="stop372" /></linearGradient><linearGradient
       id="linearGradient362"
       inkscape:collect="always"><stop
         style="stop-color:#008080;stop-opacity:1;"
         offset="0"
         id="stop362" /><stop
         style="stop-color:#09302b;stop-opacity:1;"
         offset="0.0001"
         id="stop364" /><stop
         style="stop-color:#0a423c;stop-opacity:1;"
         offset="0.13797164"
         id="stop366" /><stop
         style="stop-color:#0e675c;stop-opacity:1;"
         offset="0.43730968"
         id="stop365" /><stop
         style="stop-color:#0f7568;stop-opacity:1;"
         offset="0.55111581"
         id="stop368" /><stop
         style="stop-color:#20a897;stop-opacity:1;"
         offset="0.99731594"
         id="stop367" /><stop
         style="stop-color:#118479;stop-opacity:1;"
         offset="1"
         id="stop363" /></linearGradient><linearGradient
       id="linearGradient360"
       inkscape:swatch="gradient"><stop
         style="stop-color:#000000;stop-opacity:1;"
         offset="0"
         id="stop360" /><stop
         style="stop-color:#000000;stop-opacity:0;"
         offset="1"
         id="stop361" /></linearGradient><linearGradient
       id="linearGradient356"
       inkscape:swatch="gradient"><stop
         style="stop-color:#000000;stop-opacity:1;"
         offset="0"
         id="stop356" /><stop
         style="stop-color:#000000;stop-opacity:0;"
         offset="1"
         id="stop357" /></linearGradient><linearGradient
       id="swatch334"
       inkscape:swatch="solid"><stop
         style="stop-color:#000000;stop-opacity:1;"
         offset="0"
         id="stop334" /></linearGradient><linearGradient
       id="swatch5"><stop
         style="stop-color:#ffffff;stop-opacity:1;"
         offset="0"
         id="stop5" /></linearGradient><linearGradient
       inkscape:collect="always"
       xlink:href="#swatch5"
       id="linearGradient5"
       x1="-19.734507"
       y1="-217.55521"
       x2="40.492813"
       y2="-217.55521"
       gradientUnits="userSpaceOnUse"
       gradientTransform="translate(48.78148,289.99996)" /><linearGradient
       inkscape:collect="always"
       xlink:href="#swatch5"
       id="linearGradient6"
       x1="-19.733011"
       y1="-253.23637"
       x2="40.402302"
       y2="-253.23637"
       gradientUnits="userSpaceOnUse"
       gradientTransform="translate(48.78148,289.99996)" /><linearGradient
       inkscape:collect="always"
       xlink:href="#swatch5"
       id="linearGradient7"
       x1="0.27967522"
       y1="-227.55536"
       x2="26.341057"
       y2="-227.55536"
       gradientUnits="userSpaceOnUse"
       gradientTransform="translate(48.78148,289.99996)" /><linearGradient
       inkscape:collect="always"
       xlink:href="#swatch5"
       id="linearGradient8"
       x1="0.28152341"
       y1="-243.30753"
       x2="26.23543"
       y2="-243.30753"
       gradientUnits="userSpaceOnUse"
       gradientTransform="translate(48.78148,289.99996)" /><linearGradient
       inkscape:collect="always"
       xlink:href="#linearGradient362"
       id="linearGradient363"
       x1="-36.237068"
       y1="-236.01248"
       x2="56.906357"
       y2="-236.01248"
       gradientUnits="userSpaceOnUse"
       gradientTransform="matrix(1.1890973,0,0,1.0562352,222.24348,261.27863)" /><linearGradient
       inkscape:collect="always"
       xlink:href="#swatch5"
       id="linearGradient370"
       gradientUnits="userSpaceOnUse"
       x1="186.66383"
       y1="9.6652298"
       x2="285.41785"
       y2="9.6652298"
       gradientTransform="matrix(1.1211963,0,0,0.9959219,-30.115768,2.3680894)" /><linearGradient
       inkscape:collect="always"
       xlink:href="#linearGradient371"
       id="linearGradient372"
       x1="95"
       y1="-235"
       x2="195"
       y2="-235"
       gradientUnits="userSpaceOnUse"
       gradientTransform="matrix(1.0999998,0,0,1.0999998,-394.49996,246.78146)" /></defs><g
     inkscape:groupmode="layer"
     id="layer4"
     inkscape:label="Color"
     transform="translate(48.78148,289.99996)"><rect
       style="display:none;fill:url(#linearGradient363);stroke:url(#linearGradient370);stroke-width:0;stroke-dasharray:none;stroke-dashoffset:0;stroke-opacity:1"
       id="rect360"
       width="110.16205"
       height="98.153397"
       x="179.45134"
       y="-37.082798"
       ry="0.027947091"
       transform="matrix(-0.00688356,-0.99997631,0.99997243,-0.00742494,0,0)" /><rect
       style="fill:url(#linearGradient372);stroke:#000000;stroke-width:0;stroke-dasharray:none;stroke-dashoffset:0;stroke-opacity:1"
       id="rect370"
       width="109.99998"
       height="120.99997"
       x="-289.99997"
       y="-72.218491"
       ry="0.030741794"
       transform="rotate(90)" /></g><path
     d="m 29.309284,55.389471 c 0.02585,0.53757 0.06427,1.07447 0.115238,1.61024 0.524035,9.32647 4.807661,18.04196 11.871627,24.15408 0.445274,0.35082 0.899138,0.69061 1.361157,1.01906 l 1.81901,-1.7079 1.828313,-1.71618 1.862418,-1.74821 c -0.459695,-0.34797 -0.908142,-0.71059 -1.34462,-1.08727 -4.669769,-3.79747 -7.936875,-9.04663 -9.282121,-14.91331 h 2.581238 c 2.738997,10.84434 12.475247,18.45727 23.660054,18.50017 3.358536,-0.0293 6.675388,-0.74895 9.744108,-2.11409 l 0.555005,2.48202 c -3.260021,1.37875 -6.759642,2.10308 -10.299113,2.13166 -1.355998,-0.004 -2.709871,-0.11068 -4.049882,-0.31833 -0.655281,-0.12263 -1.305858,-0.2695 -1.950269,-0.44028 v 2.56263 2.56367 2.54403 c 0.647086,0.11813 1.297488,0.21774 1.950269,0.29869 1.343048,0.17605 2.695452,0.27286 4.049882,0.2899 8.771538,-0.0265 17.204481,-3.39371 23.582023,-9.41596 0.537431,-0.50406 1.058639,-1.02526 1.562695,-1.56269 l -1.769917,-1.76992 -1.767334,-1.76734 -1.767851,-1.76785 -1.769918,-1.76991 -1.761133,-1.76114 -1.788521,-1.78852 -1.767851,-1.76785 c -0.484228,0.55614 -1.004212,1.08027 -1.556494,1.5689 -3.085138,2.74643 -7.065288,4.27585 -11.195699,4.30206 -8.584703,-0.0398 -15.793284,-6.47492 -16.803109,-15.00012 -0.07841,-0.53392 -0.131352,-1.07128 -0.158646,-1.61024 h -2.500106 -2.50424 -2.500106 -2.503206 -2.500106 -2.500106 z m 2.629296,1.61024 h 2.500623 2.499589 2.517676 2.500106 2.52181 c 1.021192,9.90641 9.344423,17.45222 19.303214,17.50023 2.999232,-0.0294 5.951695,-0.75049 8.626864,-2.10685 0.708134,-0.32555 1.396219,-0.69333 2.060339,-1.10123 0.803292,-0.551 1.564283,-1.16152 2.276347,-1.82624 l 1.78232,1.78283 1.761133,1.76114 1.774568,1.77405 1.767851,1.76785 1.767851,1.76785 c -5.909517,5.55334 -13.707934,8.65616 -21.817273,8.68061 -1.355289,-0.0202 -2.708077,-0.12656 -4.049882,-0.31833 v -2.50062 c 1.34099,0.19921 2.694239,0.30575 4.049882,0.31884 3.721095,-0.03 7.403243,-0.76382 10.851534,-2.16266 0.714668,-0.26407 1.418896,-0.55576 2.110982,-0.87436 l -0.558622,-2.49546 -0.571541,-2.55488 -0.568958,-2.54455 c -0.673537,0.37937 -1.366651,0.72299 -2.076359,1.0294 -2.874434,1.35628 -6.008822,2.07368 -9.187036,2.10271 -9.808077,-0.0375 -18.407067,-6.56369 -21.081917,-16.00006 -0.209911,-0.65783 -0.388744,-1.32522 -0.535885,-1.99987 h -2.532145 -2.535246 -2.500106 c 0.104075,0.6708 0.231278,1.33785 0.381372,1.99987 1.367812,6.51889 4.901679,12.38322 10.026262,16.63827 l -1.818494,1.72392 C 36.555665,73.744361 32.495645,65.671701 31.93858,56.999711 Z"
     style="fill:#ffffff;fill-rule:evenodd;stroke:url(#linearGradient5);stroke-width:0.5"
     id="path5" /><path
     d="m 63.781598,19.718631 c -1.354452,0.0169 -2.706792,0.11351 -4.049882,0.28939 -0.635921,0.0783 -1.269567,0.17427 -1.900142,0.28784 v 2.54351 2.56263 2.56316 c 0.628009,-0.16561 1.261828,-0.30851 1.900142,-0.4284 1.340022,-0.20766 2.693873,-0.31407 4.049882,-0.31833 3.722127,0.003 7.403605,0.77623 10.812777,2.27015 l -0.719336,2.41535 c -3.170892,-1.4373 -6.612005,-2.18236 -10.093441,-2.18539 -11.184718,0.0429 -20.921079,7.65591 -23.660054,18.50016 h -2.581238 c 1.347509,-5.8781 4.624535,-11.1364 9.307959,-14.93552 0.435904,-0.37402 0.883685,-0.73407 1.342553,-1.07952 l -1.83813,-1.77509 -1.801441,-1.73891 -1.785937,-1.72444 c -0.430791,0.30715 -0.854515,0.62421 -1.270724,0.95084 -7.173555,6.11185 -11.535039,14.89345 -12.070064,24.3024 -0.05014,0.52905 -0.08805,1.05927 -0.113688,1.59008 h 2.502689 2.500106 2.500106 2.503206 2.500106 2.504757 2.500106 c 0.02724,-0.53216 0.0795,-1.06283 0.156579,-1.59008 1.009815,-8.52512 8.218491,-14.96029 16.803109,-15.00012 4.167918,0.003 8.190362,1.53645 11.301636,4.30981 0.479932,0.42772 0.9353,0.88239 1.363741,1.36168 l 1.769401,-1.76992 1.770951,-1.77044 1.769918,-1.76991 1.765784,-1.76579 1.773018,-1.77353 1.763717,-1.7632 1.775085,-1.77509 c -0.448674,-0.47308 -0.910685,-0.93337 -1.385445,-1.38028 -6.401274,-6.03797 -14.868176,-9.40181 -23.667806,-9.40304 z m 0,2.49959 c 8.137146,0.004 15.967449,3.10791 21.897371,8.68009 l -1.761649,1.76733 -1.769401,1.77509 -1.764234,1.7694 -1.766817,1.77302 -1.766817,1.7725 c -0.776801,-0.70168 -1.609,-1.33978 -2.48822,-1.90789 -0.621158,-0.40408 -1.264964,-0.77249 -1.928048,-1.10329 -2.689512,-1.33223 -5.650801,-2.02573 -8.652185,-2.02624 -9.958692,0.048 -18.282032,7.59391 -19.303214,17.50023 h -2.52181 -2.500106 -2.517676 -2.499589 -2.500623 c 0.560451,-8.73193 4.672719,-16.8545 11.378634,-22.47512 l 1.765267,1.76992 c -5.166722,4.25992 -8.730692,10.15164 -10.105326,16.70544 -0.149918,0.66202 -0.276955,1.32909 -0.380856,1.99988 h 2.500106 2.535246 2.532145 c 0.147139,-0.67465 0.325977,-1.34205 0.535885,-1.99988 2.674828,-9.43629 11.273919,-15.96254 21.081917,-16.00006 3.241312,0 6.442863,0.71629 9.375138,2.09755 0.671727,0.32021 1.32683,0.67432 1.962671,1.06092 l 0.754476,-2.46084 0.748792,-2.44222 0.746207,-2.43345 c -0.672762,-0.34751 -1.358704,-0.66902 -2.056205,-0.96376 -3.646168,-1.55271 -7.56807,-2.35488 -11.531079,-2.35851 -1.355654,0.0131 -2.708881,0.11963 -4.049882,0.31884 v -2.50011 c 1.341826,-0.19194 2.69455,-0.29844 4.049882,-0.31884 z"
     style="fill:#ffffff;fill-rule:evenodd;stroke:url(#linearGradient6);stroke-width:0.5"
     id="path4" /><path
     d="m 49.325633,55.389471 c 0.0304,0.5397 0.09096,1.0773 0.181384,1.61024 0.993305,7.13359 7.072295,12.45686 14.274581,12.50001 3.470358,-0.0191 6.818834,-1.28223 9.43715,-3.55999 0.560089,-0.48053 1.082682,-1.00312 1.563212,-1.56321 l -1.756999,-1.75648 -3.554821,-3.55482 -1.856218,-1.85622 c -0.378152,0.64567 -0.911354,1.18687 -1.551326,1.57458 -0.681836,0.44005 -1.470001,0.68753 -2.280998,0.71624 -1.688093,-0.0223 -3.221708,-0.98768 -3.971851,-2.50011 -0.249481,-0.50387 -0.402329,-1.05006 -0.450618,-1.61024 h -2.516126 -5.017781 z m 2.68149,1.61024 h 5.091162 c 0.881747,2.95788 3.596827,4.9892 6.683313,5.00021 1.488773,-0.002 2.938232,-0.47828 4.137732,-1.36012 l 3.542936,3.54294 c -2.15116,1.80979 -4.869485,2.80692 -7.680668,2.81739 -5.83392,-0.0281 -10.802416,-4.24798 -11.774475,-10.00042 z"
     style="fill:#ffffff;fill-rule:evenodd;stroke:url(#linearGradient7);stroke-width:0.5"
     id="path3" /><path
     d="m 63.781598,39.647391 c -7.202272,0.0431 -13.281278,5.36644 -14.274581,12.50002 -0.08899,0.52632 -0.148859,1.05716 -0.179317,1.59008 h 2.499589 5.019332 2.516642 c 0.04946,-0.55303 0.200834,-1.09214 0.446484,-1.59008 0.75014,-1.51243 2.283765,-2.47778 3.971851,-2.50011 0.859372,0.003 1.699879,0.25251 2.422074,0.7183 0.54103,0.34697 1.001474,0.80583 1.350306,1.34566 l 1.794722,-1.79473 2.201933,-2.20193 1.350822,-1.35082 1.773018,-1.7725 c -0.423334,-0.48232 -0.878234,-0.93601 -1.361674,-1.35806 -2.639031,-2.30827 -6.025122,-3.58219 -9.531201,-3.58583 z m 0,2.50011 c 2.844427,0.004 5.595092,1.01785 7.761283,2.86132 l -3.547587,3.55948 c -1.212749,-0.9191 -2.692024,-1.41799 -4.213696,-1.42111 -3.086474,0.011 -5.80157,2.04235 -6.683313,5.00022 h -5.091162 c 0.972281,-5.75222 5.940731,-9.97186 11.774475,-9.99991 z"
     style="fill:#ffffff;fill-rule:evenodd;stroke:url(#linearGradient8);stroke-width:0.5"
     id="path2" /></svg>
